<mxfile host="app.diagrams.net" modified="2024-03-24T19:47:48.825Z" agent="Mozilla/5.0 (X11; Linux x86_64; rv:124.0) Gecko/20100101 Firefox/124.0" etag="ZwswxMKeTRLCzGYZe4if" version="24.1.0" type="device">
  <diagram name="Page-1" id="3NpwiD-CQ3M0vA6CVQvA">
    <mxGraphModel dx="2899" dy="1129" grid="1" gridSize="10" guides="1" tooltips="1" connect="1" arrows="1" fold="1" page="1" pageScale="1" pageWidth="850" pageHeight="1100" math="0" shadow="0">
      <root>
        <mxCell id="0" />
        <mxCell id="1" parent="0" />
        <mxCell id="OM2ZvtQKvb1AYep5Pok9-2" value="Tetrinos &amp;lt;&amp;lt;enum&amp;gt;&amp;gt;" style="swimlane;fontStyle=0;childLayout=stackLayout;horizontal=1;startSize=26;fillColor=none;horizontalStack=0;resizeParent=1;resizeParentMax=0;resizeLast=0;collapsible=1;marginBottom=0;whiteSpace=wrap;html=1;" vertex="1" parent="1">
          <mxGeometry x="720" y="220" width="140" height="208" as="geometry" />
        </mxCell>
        <mxCell id="OM2ZvtQKvb1AYep5Pok9-3" value="+ Square" style="text;strokeColor=none;fillColor=none;align=left;verticalAlign=top;spacingLeft=4;spacingRight=4;overflow=hidden;rotatable=0;points=[[0,0.5],[1,0.5]];portConstraint=eastwest;whiteSpace=wrap;html=1;" vertex="1" parent="OM2ZvtQKvb1AYep5Pok9-2">
          <mxGeometry y="26" width="140" height="26" as="geometry" />
        </mxCell>
        <mxCell id="OM2ZvtQKvb1AYep5Pok9-4" value="+ Bar" style="text;strokeColor=none;fillColor=none;align=left;verticalAlign=top;spacingLeft=4;spacingRight=4;overflow=hidden;rotatable=0;points=[[0,0.5],[1,0.5]];portConstraint=eastwest;whiteSpace=wrap;html=1;" vertex="1" parent="OM2ZvtQKvb1AYep5Pok9-2">
          <mxGeometry y="52" width="140" height="26" as="geometry" />
        </mxCell>
        <mxCell id="OM2ZvtQKvb1AYep5Pok9-5" value="+ TShape" style="text;strokeColor=none;fillColor=none;align=left;verticalAlign=top;spacingLeft=4;spacingRight=4;overflow=hidden;rotatable=0;points=[[0,0.5],[1,0.5]];portConstraint=eastwest;whiteSpace=wrap;html=1;" vertex="1" parent="OM2ZvtQKvb1AYep5Pok9-2">
          <mxGeometry y="78" width="140" height="26" as="geometry" />
        </mxCell>
        <mxCell id="OM2ZvtQKvb1AYep5Pok9-6" value="+ SShape" style="text;strokeColor=none;fillColor=none;align=left;verticalAlign=top;spacingLeft=4;spacingRight=4;overflow=hidden;rotatable=0;points=[[0,0.5],[1,0.5]];portConstraint=eastwest;whiteSpace=wrap;html=1;" vertex="1" parent="OM2ZvtQKvb1AYep5Pok9-2">
          <mxGeometry y="104" width="140" height="26" as="geometry" />
        </mxCell>
        <mxCell id="OM2ZvtQKvb1AYep5Pok9-7" value="+ ZShape" style="text;strokeColor=none;fillColor=none;align=left;verticalAlign=top;spacingLeft=4;spacingRight=4;overflow=hidden;rotatable=0;points=[[0,0.5],[1,0.5]];portConstraint=eastwest;whiteSpace=wrap;html=1;" vertex="1" parent="OM2ZvtQKvb1AYep5Pok9-2">
          <mxGeometry y="130" width="140" height="26" as="geometry" />
        </mxCell>
        <mxCell id="OM2ZvtQKvb1AYep5Pok9-8" value="+ LShape" style="text;strokeColor=none;fillColor=none;align=left;verticalAlign=top;spacingLeft=4;spacingRight=4;overflow=hidden;rotatable=0;points=[[0,0.5],[1,0.5]];portConstraint=eastwest;whiteSpace=wrap;html=1;" vertex="1" parent="OM2ZvtQKvb1AYep5Pok9-2">
          <mxGeometry y="156" width="140" height="26" as="geometry" />
        </mxCell>
        <mxCell id="OM2ZvtQKvb1AYep5Pok9-9" value="+ JShape" style="text;strokeColor=none;fillColor=none;align=left;verticalAlign=top;spacingLeft=4;spacingRight=4;overflow=hidden;rotatable=0;points=[[0,0.5],[1,0.5]];portConstraint=eastwest;whiteSpace=wrap;html=1;" vertex="1" parent="OM2ZvtQKvb1AYep5Pok9-2">
          <mxGeometry y="182" width="140" height="26" as="geometry" />
        </mxCell>
        <mxCell id="OM2ZvtQKvb1AYep5Pok9-10" value="GamePhase &amp;lt;&amp;lt;enum&amp;gt;&amp;gt;" style="swimlane;fontStyle=0;childLayout=stackLayout;horizontal=1;startSize=26;fillColor=none;horizontalStack=0;resizeParent=1;resizeParentMax=0;resizeLast=0;collapsible=1;marginBottom=0;whiteSpace=wrap;html=1;" vertex="1" parent="1">
          <mxGeometry x="560" y="220" width="140" height="130" as="geometry" />
        </mxCell>
        <mxCell id="OM2ZvtQKvb1AYep5Pok9-11" value="+ Initialized" style="text;strokeColor=none;fillColor=none;align=left;verticalAlign=top;spacingLeft=4;spacingRight=4;overflow=hidden;rotatable=0;points=[[0,0.5],[1,0.5]];portConstraint=eastwest;whiteSpace=wrap;html=1;" vertex="1" parent="OM2ZvtQKvb1AYep5Pok9-10">
          <mxGeometry y="26" width="140" height="26" as="geometry" />
        </mxCell>
        <mxCell id="OM2ZvtQKvb1AYep5Pok9-12" value="+ Ready" style="text;strokeColor=none;fillColor=none;align=left;verticalAlign=top;spacingLeft=4;spacingRight=4;overflow=hidden;rotatable=0;points=[[0,0.5],[1,0.5]];portConstraint=eastwest;whiteSpace=wrap;html=1;" vertex="1" parent="OM2ZvtQKvb1AYep5Pok9-10">
          <mxGeometry y="52" width="140" height="26" as="geometry" />
        </mxCell>
        <mxCell id="OM2ZvtQKvb1AYep5Pok9-13" value="+ Playing" style="text;strokeColor=none;fillColor=none;align=left;verticalAlign=top;spacingLeft=4;spacingRight=4;overflow=hidden;rotatable=0;points=[[0,0.5],[1,0.5]];portConstraint=eastwest;whiteSpace=wrap;html=1;" vertex="1" parent="OM2ZvtQKvb1AYep5Pok9-10">
          <mxGeometry y="78" width="140" height="26" as="geometry" />
        </mxCell>
        <mxCell id="OM2ZvtQKvb1AYep5Pok9-14" value="+ Gameover" style="text;strokeColor=none;fillColor=none;align=left;verticalAlign=top;spacingLeft=4;spacingRight=4;overflow=hidden;rotatable=0;points=[[0,0.5],[1,0.5]];portConstraint=eastwest;whiteSpace=wrap;html=1;" vertex="1" parent="OM2ZvtQKvb1AYep5Pok9-10">
          <mxGeometry y="104" width="140" height="26" as="geometry" />
        </mxCell>
        <mxCell id="OM2ZvtQKvb1AYep5Pok9-18" value="&lt;div&gt;«interface»&lt;/div&gt;Shape" style="html=1;whiteSpace=wrap;" vertex="1" parent="1">
          <mxGeometry x="490" y="430" width="110" height="50" as="geometry" />
        </mxCell>
        <mxCell id="OM2ZvtQKvb1AYep5Pok9-33" style="edgeStyle=orthogonalEdgeStyle;rounded=0;orthogonalLoop=1;jettySize=auto;html=1;endArrow=none;endFill=0;exitX=0.5;exitY=0;exitDx=0;exitDy=0;" edge="1" parent="1" source="OM2ZvtQKvb1AYep5Pok9-19">
          <mxGeometry relative="1" as="geometry">
            <mxPoint x="460" y="520" as="targetPoint" />
            <Array as="points">
              <mxPoint x="290" y="520" />
            </Array>
          </mxGeometry>
        </mxCell>
        <mxCell id="OM2ZvtQKvb1AYep5Pok9-19" value="Square" style="swimlane;fontStyle=0;childLayout=stackLayout;horizontal=1;startSize=26;fillColor=none;horizontalStack=0;resizeParent=1;resizeParentMax=0;resizeLast=0;collapsible=1;marginBottom=0;whiteSpace=wrap;html=1;" vertex="1" parent="1">
          <mxGeometry x="220" y="540" width="140" height="52" as="geometry" />
        </mxCell>
        <mxCell id="OM2ZvtQKvb1AYep5Pok9-32" style="edgeStyle=orthogonalEdgeStyle;rounded=0;orthogonalLoop=1;jettySize=auto;html=1;endArrow=none;endFill=0;" edge="1" parent="1" source="OM2ZvtQKvb1AYep5Pok9-23">
          <mxGeometry relative="1" as="geometry">
            <mxPoint x="550" y="520" as="targetPoint" />
            <Array as="points">
              <mxPoint x="460" y="520" />
            </Array>
          </mxGeometry>
        </mxCell>
        <mxCell id="OM2ZvtQKvb1AYep5Pok9-23" value="Bar" style="swimlane;fontStyle=0;childLayout=stackLayout;horizontal=1;startSize=26;fillColor=none;horizontalStack=0;resizeParent=1;resizeParentMax=0;resizeLast=0;collapsible=1;marginBottom=0;whiteSpace=wrap;html=1;" vertex="1" parent="1">
          <mxGeometry x="390" y="540" width="140" height="52" as="geometry" />
        </mxCell>
        <mxCell id="OM2ZvtQKvb1AYep5Pok9-30" style="edgeStyle=orthogonalEdgeStyle;rounded=0;orthogonalLoop=1;jettySize=auto;html=1;exitX=0.5;exitY=0;exitDx=0;exitDy=0;endArrow=none;endFill=0;" edge="1" parent="1" source="OM2ZvtQKvb1AYep5Pok9-24">
          <mxGeometry relative="1" as="geometry">
            <mxPoint x="630" y="520" as="targetPoint" />
          </mxGeometry>
        </mxCell>
        <mxCell id="OM2ZvtQKvb1AYep5Pok9-24" value="TShape" style="swimlane;fontStyle=0;childLayout=stackLayout;horizontal=1;startSize=26;fillColor=none;horizontalStack=0;resizeParent=1;resizeParentMax=0;resizeLast=0;collapsible=1;marginBottom=0;whiteSpace=wrap;html=1;" vertex="1" parent="1">
          <mxGeometry x="560" y="540" width="140" height="52" as="geometry" />
        </mxCell>
        <mxCell id="OM2ZvtQKvb1AYep5Pok9-25" value="SShape" style="swimlane;fontStyle=0;childLayout=stackLayout;horizontal=1;startSize=26;fillColor=none;horizontalStack=0;resizeParent=1;resizeParentMax=0;resizeLast=0;collapsible=1;marginBottom=0;whiteSpace=wrap;html=1;" vertex="1" parent="1">
          <mxGeometry x="730" y="540" width="140" height="52" as="geometry" />
        </mxCell>
        <mxCell id="OM2ZvtQKvb1AYep5Pok9-37" style="edgeStyle=orthogonalEdgeStyle;rounded=0;orthogonalLoop=1;jettySize=auto;html=1;endArrow=none;endFill=0;" edge="1" parent="1" source="OM2ZvtQKvb1AYep5Pok9-26">
          <mxGeometry relative="1" as="geometry">
            <mxPoint x="380" y="520" as="targetPoint" />
          </mxGeometry>
        </mxCell>
        <mxCell id="OM2ZvtQKvb1AYep5Pok9-26" value="ZShape" style="swimlane;fontStyle=0;childLayout=stackLayout;horizontal=1;startSize=26;fillColor=none;horizontalStack=0;resizeParent=1;resizeParentMax=0;resizeLast=0;collapsible=1;marginBottom=0;whiteSpace=wrap;html=1;" vertex="1" parent="1">
          <mxGeometry x="310" y="630" width="140" height="52" as="geometry" />
        </mxCell>
        <mxCell id="OM2ZvtQKvb1AYep5Pok9-35" style="edgeStyle=orthogonalEdgeStyle;rounded=0;orthogonalLoop=1;jettySize=auto;html=1;endArrow=none;endFill=0;" edge="1" parent="1" source="OM2ZvtQKvb1AYep5Pok9-27">
          <mxGeometry relative="1" as="geometry">
            <mxPoint x="545" y="520" as="targetPoint" />
          </mxGeometry>
        </mxCell>
        <mxCell id="OM2ZvtQKvb1AYep5Pok9-27" value="LShape" style="swimlane;fontStyle=0;childLayout=stackLayout;horizontal=1;startSize=26;fillColor=none;horizontalStack=0;resizeParent=1;resizeParentMax=0;resizeLast=0;collapsible=1;marginBottom=0;whiteSpace=wrap;html=1;" vertex="1" parent="1">
          <mxGeometry x="475" y="630" width="140" height="52" as="geometry" />
        </mxCell>
        <mxCell id="OM2ZvtQKvb1AYep5Pok9-36" style="edgeStyle=orthogonalEdgeStyle;rounded=0;orthogonalLoop=1;jettySize=auto;html=1;endArrow=none;endFill=0;" edge="1" parent="1" source="OM2ZvtQKvb1AYep5Pok9-28">
          <mxGeometry relative="1" as="geometry">
            <mxPoint x="720" y="520" as="targetPoint" />
          </mxGeometry>
        </mxCell>
        <mxCell id="OM2ZvtQKvb1AYep5Pok9-28" value="JShape" style="swimlane;fontStyle=0;childLayout=stackLayout;horizontal=1;startSize=26;fillColor=none;horizontalStack=0;resizeParent=1;resizeParentMax=0;resizeLast=0;collapsible=1;marginBottom=0;whiteSpace=wrap;html=1;" vertex="1" parent="1">
          <mxGeometry x="650" y="630" width="140" height="52" as="geometry" />
        </mxCell>
        <mxCell id="OM2ZvtQKvb1AYep5Pok9-29" value="" style="endArrow=block;endSize=16;endFill=0;html=1;rounded=0;entryX=0.5;entryY=1;entryDx=0;entryDy=0;exitX=0.5;exitY=0;exitDx=0;exitDy=0;" edge="1" parent="1" source="OM2ZvtQKvb1AYep5Pok9-25" target="OM2ZvtQKvb1AYep5Pok9-18">
          <mxGeometry width="160" relative="1" as="geometry">
            <mxPoint x="545" y="520" as="sourcePoint" />
            <mxPoint x="760" y="430" as="targetPoint" />
            <Array as="points">
              <mxPoint x="800" y="520" />
              <mxPoint x="545" y="520" />
            </Array>
          </mxGeometry>
        </mxCell>
        <mxCell id="OM2ZvtQKvb1AYep5Pok9-38" value="TetrinoFactory" style="swimlane;fontStyle=0;childLayout=stackLayout;horizontal=1;startSize=26;fillColor=none;horizontalStack=0;resizeParent=1;resizeParentMax=0;resizeLast=0;collapsible=1;marginBottom=0;whiteSpace=wrap;html=1;" vertex="1" parent="1">
          <mxGeometry x="-5" y="419" width="140" height="72" as="geometry" />
        </mxCell>
        <mxCell id="OM2ZvtQKvb1AYep5Pok9-43" value="" style="endArrow=open;endFill=1;endSize=12;html=1;rounded=0;exitX=1;exitY=0.5;exitDx=0;exitDy=0;entryX=0;entryY=0.5;entryDx=0;entryDy=0;" edge="1" parent="1" source="OM2ZvtQKvb1AYep5Pok9-38" target="OM2ZvtQKvb1AYep5Pok9-18">
          <mxGeometry width="160" relative="1" as="geometry">
            <mxPoint x="230" y="450" as="sourcePoint" />
            <mxPoint x="390" y="450" as="targetPoint" />
          </mxGeometry>
        </mxCell>
        <mxCell id="OM2ZvtQKvb1AYep5Pok9-55" style="edgeStyle=orthogonalEdgeStyle;rounded=0;orthogonalLoop=1;jettySize=auto;html=1;exitX=0.5;exitY=1;exitDx=0;exitDy=0;endArrow=none;endFill=0;" edge="1" parent="1" source="OM2ZvtQKvb1AYep5Pok9-45">
          <mxGeometry relative="1" as="geometry">
            <mxPoint x="65" y="390" as="targetPoint" />
            <Array as="points">
              <mxPoint x="-190" y="390" />
            </Array>
          </mxGeometry>
        </mxCell>
        <mxCell id="OM2ZvtQKvb1AYep5Pok9-45" value="SquareTetrino" style="swimlane;fontStyle=0;childLayout=stackLayout;horizontal=1;startSize=26;fillColor=none;horizontalStack=0;resizeParent=1;resizeParentMax=0;resizeLast=0;collapsible=1;marginBottom=0;whiteSpace=wrap;html=1;" vertex="1" parent="1">
          <mxGeometry x="-260" y="310" width="140" height="52" as="geometry" />
        </mxCell>
        <mxCell id="OM2ZvtQKvb1AYep5Pok9-46" value="BarTetrino" style="swimlane;fontStyle=0;childLayout=stackLayout;horizontal=1;startSize=26;fillColor=none;horizontalStack=0;resizeParent=1;resizeParentMax=0;resizeLast=0;collapsible=1;marginBottom=0;whiteSpace=wrap;html=1;" vertex="1" parent="1">
          <mxGeometry x="-90" y="310" width="140" height="52" as="geometry" />
        </mxCell>
        <mxCell id="OM2ZvtQKvb1AYep5Pok9-54" style="edgeStyle=orthogonalEdgeStyle;rounded=0;orthogonalLoop=1;jettySize=auto;html=1;endArrow=none;endFill=0;" edge="1" parent="1" source="OM2ZvtQKvb1AYep5Pok9-47">
          <mxGeometry relative="1" as="geometry">
            <mxPoint x="150" y="390" as="targetPoint" />
          </mxGeometry>
        </mxCell>
        <mxCell id="OM2ZvtQKvb1AYep5Pok9-47" value="TTetrino" style="swimlane;fontStyle=0;childLayout=stackLayout;horizontal=1;startSize=26;fillColor=none;horizontalStack=0;resizeParent=1;resizeParentMax=0;resizeLast=0;collapsible=1;marginBottom=0;whiteSpace=wrap;html=1;" vertex="1" parent="1">
          <mxGeometry x="80" y="310" width="140" height="52" as="geometry" />
        </mxCell>
        <mxCell id="OM2ZvtQKvb1AYep5Pok9-53" style="edgeStyle=orthogonalEdgeStyle;rounded=0;orthogonalLoop=1;jettySize=auto;html=1;exitX=0.5;exitY=1;exitDx=0;exitDy=0;endArrow=none;endFill=0;" edge="1" parent="1" source="OM2ZvtQKvb1AYep5Pok9-48">
          <mxGeometry relative="1" as="geometry">
            <mxPoint x="65" y="390" as="targetPoint" />
            <Array as="points">
              <mxPoint x="320" y="390" />
            </Array>
          </mxGeometry>
        </mxCell>
        <mxCell id="OM2ZvtQKvb1AYep5Pok9-48" value="SShape" style="swimlane;fontStyle=0;childLayout=stackLayout;horizontal=1;startSize=26;fillColor=none;horizontalStack=0;resizeParent=1;resizeParentMax=0;resizeLast=0;collapsible=1;marginBottom=0;whiteSpace=wrap;html=1;" vertex="1" parent="1">
          <mxGeometry x="250" y="310" width="140" height="52" as="geometry" />
        </mxCell>
        <mxCell id="OM2ZvtQKvb1AYep5Pok9-57" style="edgeStyle=orthogonalEdgeStyle;rounded=0;orthogonalLoop=1;jettySize=auto;html=1;endArrow=none;endFill=0;" edge="1" parent="1" source="OM2ZvtQKvb1AYep5Pok9-49">
          <mxGeometry relative="1" as="geometry">
            <mxPoint x="235" y="390" as="targetPoint" />
          </mxGeometry>
        </mxCell>
        <mxCell id="OM2ZvtQKvb1AYep5Pok9-49" value="JTetrino" style="swimlane;fontStyle=0;childLayout=stackLayout;horizontal=1;startSize=26;fillColor=none;horizontalStack=0;resizeParent=1;resizeParentMax=0;resizeLast=0;collapsible=1;marginBottom=0;whiteSpace=wrap;html=1;" vertex="1" parent="1">
          <mxGeometry x="165" y="230" width="140" height="52" as="geometry" />
        </mxCell>
        <mxCell id="OM2ZvtQKvb1AYep5Pok9-50" value="LTetrino" style="swimlane;fontStyle=0;childLayout=stackLayout;horizontal=1;startSize=26;fillColor=none;horizontalStack=0;resizeParent=1;resizeParentMax=0;resizeLast=0;collapsible=1;marginBottom=0;whiteSpace=wrap;html=1;" vertex="1" parent="1">
          <mxGeometry x="-5" y="230" width="140" height="52" as="geometry" />
        </mxCell>
        <mxCell id="OM2ZvtQKvb1AYep5Pok9-56" style="edgeStyle=orthogonalEdgeStyle;rounded=0;orthogonalLoop=1;jettySize=auto;html=1;endArrow=none;endFill=0;" edge="1" parent="1" source="OM2ZvtQKvb1AYep5Pok9-51">
          <mxGeometry relative="1" as="geometry">
            <mxPoint x="-105" y="390" as="targetPoint" />
          </mxGeometry>
        </mxCell>
        <mxCell id="OM2ZvtQKvb1AYep5Pok9-51" value="ZTetrino" style="swimlane;fontStyle=0;childLayout=stackLayout;horizontal=1;startSize=26;fillColor=none;horizontalStack=0;resizeParent=1;resizeParentMax=0;resizeLast=0;collapsible=1;marginBottom=0;whiteSpace=wrap;html=1;" vertex="1" parent="1">
          <mxGeometry x="-175" y="230" width="140" height="52" as="geometry" />
        </mxCell>
        <mxCell id="OM2ZvtQKvb1AYep5Pok9-52" value="" style="endArrow=block;endSize=16;endFill=0;html=1;rounded=0;entryX=0.5;entryY=0;entryDx=0;entryDy=0;exitX=0.5;exitY=1;exitDx=0;exitDy=0;" edge="1" parent="1" source="OM2ZvtQKvb1AYep5Pok9-50" target="OM2ZvtQKvb1AYep5Pok9-38">
          <mxGeometry width="160" relative="1" as="geometry">
            <mxPoint x="-105" y="600" as="sourcePoint" />
            <mxPoint x="55" y="600" as="targetPoint" />
          </mxGeometry>
        </mxCell>
        <mxCell id="OM2ZvtQKvb1AYep5Pok9-58" value="Physics" style="swimlane;fontStyle=0;childLayout=stackLayout;horizontal=1;startSize=26;fillColor=none;horizontalStack=0;resizeParent=1;resizeParentMax=0;resizeLast=0;collapsible=1;marginBottom=0;whiteSpace=wrap;html=1;" vertex="1" parent="1">
          <mxGeometry x="-5" y="560" width="140" height="52" as="geometry" />
        </mxCell>
        <mxCell id="OM2ZvtQKvb1AYep5Pok9-60" value="Render" style="swimlane;fontStyle=0;childLayout=stackLayout;horizontal=1;startSize=26;fillColor=none;horizontalStack=0;resizeParent=1;resizeParentMax=0;resizeLast=0;collapsible=1;marginBottom=0;whiteSpace=wrap;html=1;" vertex="1" parent="1">
          <mxGeometry x="-210" y="562" width="140" height="52" as="geometry" />
        </mxCell>
        <mxCell id="OM2ZvtQKvb1AYep5Pok9-62" value="MainGame" style="swimlane;fontStyle=0;childLayout=stackLayout;horizontal=1;startSize=26;fillColor=none;horizontalStack=0;resizeParent=1;resizeParentMax=0;resizeLast=0;collapsible=1;marginBottom=0;whiteSpace=wrap;html=1;" vertex="1" parent="1">
          <mxGeometry x="-210" y="756" width="140" height="80" as="geometry" />
        </mxCell>
        <mxCell id="OM2ZvtQKvb1AYep5Pok9-65" value="" style="endArrow=open;endFill=1;endSize=12;html=1;rounded=0;exitX=0.5;exitY=0;exitDx=0;exitDy=0;entryX=0.5;entryY=1;entryDx=0;entryDy=0;" edge="1" parent="1" source="OM2ZvtQKvb1AYep5Pok9-58" target="OM2ZvtQKvb1AYep5Pok9-38">
          <mxGeometry width="160" relative="1" as="geometry">
            <mxPoint x="165" y="720" as="sourcePoint" />
            <mxPoint x="585" y="721" as="targetPoint" />
          </mxGeometry>
        </mxCell>
        <mxCell id="OM2ZvtQKvb1AYep5Pok9-66" value="" style="endArrow=open;endFill=1;endSize=12;html=1;rounded=0;exitX=0.5;exitY=0;exitDx=0;exitDy=0;entryX=0;entryY=0.5;entryDx=0;entryDy=0;" edge="1" parent="1" source="OM2ZvtQKvb1AYep5Pok9-60" target="OM2ZvtQKvb1AYep5Pok9-38">
          <mxGeometry width="160" relative="1" as="geometry">
            <mxPoint x="-165" y="470" as="sourcePoint" />
            <mxPoint x="255" y="471" as="targetPoint" />
            <Array as="points">
              <mxPoint x="-140" y="454" />
            </Array>
          </mxGeometry>
        </mxCell>
        <mxCell id="OM2ZvtQKvb1AYep5Pok9-67" value="Board" style="swimlane;fontStyle=0;childLayout=stackLayout;horizontal=1;startSize=26;fillColor=none;horizontalStack=0;resizeParent=1;resizeParentMax=0;resizeLast=0;collapsible=1;marginBottom=0;whiteSpace=wrap;html=1;" vertex="1" parent="1">
          <mxGeometry x="120" y="828" width="140" height="52" as="geometry" />
        </mxCell>
        <mxCell id="OM2ZvtQKvb1AYep5Pok9-69" value="User" style="swimlane;fontStyle=0;childLayout=stackLayout;horizontal=1;startSize=26;fillColor=none;horizontalStack=0;resizeParent=1;resizeParentMax=0;resizeLast=0;collapsible=1;marginBottom=0;whiteSpace=wrap;html=1;" vertex="1" parent="1">
          <mxGeometry x="-210" y="900" width="140" height="52" as="geometry" />
        </mxCell>
        <mxCell id="OM2ZvtQKvb1AYep5Pok9-70" value="Leaderboard" style="swimlane;fontStyle=0;childLayout=stackLayout;horizontal=1;startSize=26;fillColor=none;horizontalStack=0;resizeParent=1;resizeParentMax=0;resizeLast=0;collapsible=1;marginBottom=0;whiteSpace=wrap;html=1;" vertex="1" parent="1">
          <mxGeometry x="-425" y="770" width="140" height="52" as="geometry" />
        </mxCell>
        <mxCell id="OM2ZvtQKvb1AYep5Pok9-73" value="&lt;div&gt;«interface»&lt;/div&gt;Board" style="html=1;whiteSpace=wrap;" vertex="1" parent="1">
          <mxGeometry x="135" y="710" width="110" height="50" as="geometry" />
        </mxCell>
        <mxCell id="OM2ZvtQKvb1AYep5Pok9-74" value="" style="endArrow=block;endSize=16;endFill=0;html=1;rounded=0;entryX=0.5;entryY=1;entryDx=0;entryDy=0;" edge="1" parent="1" target="OM2ZvtQKvb1AYep5Pok9-73">
          <mxGeometry width="160" relative="1" as="geometry">
            <mxPoint x="190" y="828" as="sourcePoint" />
            <mxPoint x="105" y="804" as="targetPoint" />
          </mxGeometry>
        </mxCell>
        <mxCell id="OM2ZvtQKvb1AYep5Pok9-75" value="" style="endArrow=open;endFill=1;endSize=12;html=1;rounded=0;exitX=0.5;exitY=0;exitDx=0;exitDy=0;entryX=1;entryY=0.5;entryDx=0;entryDy=0;" edge="1" parent="1" source="OM2ZvtQKvb1AYep5Pok9-73" target="OM2ZvtQKvb1AYep5Pok9-58">
          <mxGeometry width="160" relative="1" as="geometry">
            <mxPoint x="70" y="720" as="sourcePoint" />
            <mxPoint x="140" y="590" as="targetPoint" />
            <Array as="points">
              <mxPoint x="190" y="586" />
            </Array>
          </mxGeometry>
        </mxCell>
        <mxCell id="OM2ZvtQKvb1AYep5Pok9-78" value="" style="endArrow=open;endFill=1;endSize=12;html=1;rounded=0;entryX=1;entryY=0.5;entryDx=0;entryDy=0;" edge="1" parent="1" target="OM2ZvtQKvb1AYep5Pok9-60">
          <mxGeometry width="160" relative="1" as="geometry">
            <mxPoint x="130" y="730" as="sourcePoint" />
            <mxPoint x="-60" y="620" as="targetPoint" />
            <Array as="points">
              <mxPoint x="-30" y="730" />
              <mxPoint x="-30" y="588" />
            </Array>
          </mxGeometry>
        </mxCell>
        <mxCell id="OM2ZvtQKvb1AYep5Pok9-81" value="&lt;div&gt;«interface»&lt;/div&gt;Database" style="html=1;whiteSpace=wrap;" vertex="1" parent="1">
          <mxGeometry x="-410" y="900" width="110" height="50" as="geometry" />
        </mxCell>
        <mxCell id="OM2ZvtQKvb1AYep5Pok9-82" value="Database" style="swimlane;fontStyle=0;childLayout=stackLayout;horizontal=1;startSize=26;fillColor=none;horizontalStack=0;resizeParent=1;resizeParentMax=0;resizeLast=0;collapsible=1;marginBottom=0;whiteSpace=wrap;html=1;" vertex="1" parent="1">
          <mxGeometry x="-425" y="1000" width="140" height="52" as="geometry" />
        </mxCell>
        <mxCell id="OM2ZvtQKvb1AYep5Pok9-83" value="" style="endArrow=open;endFill=1;endSize=12;html=1;rounded=0;exitX=0.5;exitY=0;exitDx=0;exitDy=0;entryX=0.5;entryY=1;entryDx=0;entryDy=0;" edge="1" parent="1" source="OM2ZvtQKvb1AYep5Pok9-62" target="OM2ZvtQKvb1AYep5Pok9-60">
          <mxGeometry width="160" relative="1" as="geometry">
            <mxPoint x="-180" y="720" as="sourcePoint" />
            <mxPoint x="-180" y="640" as="targetPoint" />
          </mxGeometry>
        </mxCell>
        <mxCell id="OM2ZvtQKvb1AYep5Pok9-84" value="" style="endArrow=open;endFill=1;endSize=12;html=1;rounded=0;exitX=1;exitY=0.5;exitDx=0;exitDy=0;entryX=0.5;entryY=1;entryDx=0;entryDy=0;" edge="1" parent="1" source="OM2ZvtQKvb1AYep5Pok9-62" target="OM2ZvtQKvb1AYep5Pok9-58">
          <mxGeometry width="160" relative="1" as="geometry">
            <mxPoint x="-10" y="800" as="sourcePoint" />
            <mxPoint x="-10" y="720" as="targetPoint" />
            <Array as="points">
              <mxPoint x="65" y="796" />
            </Array>
          </mxGeometry>
        </mxCell>
        <mxCell id="OM2ZvtQKvb1AYep5Pok9-85" value="" style="endArrow=open;endFill=1;endSize=12;html=1;rounded=0;exitX=0;exitY=0.5;exitDx=0;exitDy=0;entryX=1;entryY=0.5;entryDx=0;entryDy=0;" edge="1" parent="1" source="OM2ZvtQKvb1AYep5Pok9-62" target="OM2ZvtQKvb1AYep5Pok9-70">
          <mxGeometry width="160" relative="1" as="geometry">
            <mxPoint x="-320" y="770" as="sourcePoint" />
            <mxPoint x="-320" y="690" as="targetPoint" />
            <Array as="points" />
          </mxGeometry>
        </mxCell>
        <mxCell id="OM2ZvtQKvb1AYep5Pok9-86" value="" style="endArrow=open;endFill=1;endSize=12;html=1;rounded=0;exitX=0.5;exitY=1;exitDx=0;exitDy=0;entryX=0.5;entryY=0;entryDx=0;entryDy=0;" edge="1" parent="1" source="OM2ZvtQKvb1AYep5Pok9-62" target="OM2ZvtQKvb1AYep5Pok9-69">
          <mxGeometry width="160" relative="1" as="geometry">
            <mxPoint x="-310" y="880" as="sourcePoint" />
            <mxPoint x="-310" y="800" as="targetPoint" />
          </mxGeometry>
        </mxCell>
        <mxCell id="OM2ZvtQKvb1AYep5Pok9-87" value="" style="endArrow=block;endSize=16;endFill=0;html=1;rounded=0;" edge="1" parent="1" source="OM2ZvtQKvb1AYep5Pok9-81">
          <mxGeometry width="160" relative="1" as="geometry">
            <mxPoint x="-240" y="930" as="sourcePoint" />
            <mxPoint x="-355" y="1000" as="targetPoint" />
          </mxGeometry>
        </mxCell>
        <mxCell id="OM2ZvtQKvb1AYep5Pok9-88" value="" style="endArrow=open;endFill=1;endSize=12;html=1;rounded=0;exitX=0;exitY=0.5;exitDx=0;exitDy=0;entryX=1;entryY=0.5;entryDx=0;entryDy=0;" edge="1" parent="1" source="OM2ZvtQKvb1AYep5Pok9-69" target="OM2ZvtQKvb1AYep5Pok9-81">
          <mxGeometry width="160" relative="1" as="geometry">
            <mxPoint x="-320" y="880" as="sourcePoint" />
            <mxPoint x="-320" y="958" as="targetPoint" />
          </mxGeometry>
        </mxCell>
        <mxCell id="OM2ZvtQKvb1AYep5Pok9-91" value="" style="endArrow=open;endFill=1;endSize=12;html=1;rounded=0;exitX=0.5;exitY=1;exitDx=0;exitDy=0;entryX=0.5;entryY=0;entryDx=0;entryDy=0;" edge="1" parent="1" source="OM2ZvtQKvb1AYep5Pok9-70" target="OM2ZvtQKvb1AYep5Pok9-81">
          <mxGeometry width="160" relative="1" as="geometry">
            <mxPoint x="-480" y="880" as="sourcePoint" />
            <mxPoint x="-555" y="880" as="targetPoint" />
            <Array as="points" />
          </mxGeometry>
        </mxCell>
        <mxCell id="OM2ZvtQKvb1AYep5Pok9-92" value="GameLauncher" style="swimlane;fontStyle=0;childLayout=stackLayout;horizontal=1;startSize=26;fillColor=none;horizontalStack=0;resizeParent=1;resizeParentMax=0;resizeLast=0;collapsible=1;marginBottom=0;whiteSpace=wrap;html=1;" vertex="1" parent="1">
          <mxGeometry x="-410" y="549" width="140" height="78" as="geometry" />
        </mxCell>
        <mxCell id="OM2ZvtQKvb1AYep5Pok9-96" value="+ Save(path)" style="text;strokeColor=none;fillColor=none;align=left;verticalAlign=top;spacingLeft=4;spacingRight=4;overflow=hidden;rotatable=0;points=[[0,0.5],[1,0.5]];portConstraint=eastwest;whiteSpace=wrap;html=1;" vertex="1" parent="OM2ZvtQKvb1AYep5Pok9-92">
          <mxGeometry y="26" width="140" height="26" as="geometry" />
        </mxCell>
        <mxCell id="OM2ZvtQKvb1AYep5Pok9-98" value="+ Load(path)" style="text;strokeColor=none;fillColor=none;align=left;verticalAlign=top;spacingLeft=4;spacingRight=4;overflow=hidden;rotatable=0;points=[[0,0.5],[1,0.5]];portConstraint=eastwest;whiteSpace=wrap;html=1;" vertex="1" parent="OM2ZvtQKvb1AYep5Pok9-92">
          <mxGeometry y="52" width="140" height="26" as="geometry" />
        </mxCell>
        <mxCell id="OM2ZvtQKvb1AYep5Pok9-93" value="" style="endArrow=open;endFill=1;endSize=12;html=1;rounded=0;exitX=0.25;exitY=0;exitDx=0;exitDy=0;entryX=0.5;entryY=1;entryDx=0;entryDy=0;" edge="1" parent="1" source="OM2ZvtQKvb1AYep5Pok9-62" target="OM2ZvtQKvb1AYep5Pok9-92">
          <mxGeometry width="160" relative="1" as="geometry">
            <mxPoint x="-390" y="700" as="sourcePoint" />
            <mxPoint x="-390" y="558" as="targetPoint" />
            <Array as="points">
              <mxPoint x="-175" y="680" />
              <mxPoint x="-340" y="680" />
            </Array>
          </mxGeometry>
        </mxCell>
        <mxCell id="OM2ZvtQKvb1AYep5Pok9-94" value="" style="endArrow=open;endFill=1;endSize=12;html=1;rounded=0;exitX=1;exitY=0.5;exitDx=0;exitDy=0;entryX=0;entryY=0.5;entryDx=0;entryDy=0;" edge="1" parent="1" source="OM2ZvtQKvb1AYep5Pok9-92" target="OM2ZvtQKvb1AYep5Pok9-60">
          <mxGeometry width="160" relative="1" as="geometry">
            <mxPoint x="-260" y="510" as="sourcePoint" />
            <mxPoint x="-260" y="368" as="targetPoint" />
          </mxGeometry>
        </mxCell>
      </root>
    </mxGraphModel>
  </diagram>
</mxfile>
